<svg width="169" height="24" viewBox="0 0 169 24" fill="none" xmlns="http://www.w3.org/2000/svg">
<g clip-path="url(#clip0_116_53407)">
<path d="M24.5 12C24.5 5.37258 19.1274 0 12.5 0C5.87258 0 0.5 5.37258 0.5 12C0.5 17.9895 4.8882 22.954 10.625 23.8542V15.4688H7.57812V12H10.625V9.35625C10.625 6.34875 12.4166 4.6875 15.1576 4.6875C16.4701 4.6875 17.8438 4.92188 17.8438 4.92188V7.875H16.3306C14.84 7.875 14.375 8.80008 14.375 9.75V12H17.7031L17.1711 15.4688H14.375V23.8542C20.1118 22.954 24.5 17.9895 24.5 12Z" fill="#272D37"/>
<path d="M17.1711 15.4688L17.7031 12H14.375V9.75C14.375 8.80102 14.84 7.875 16.3306 7.875H17.8438V4.92188C17.8438 4.92188 16.4705 4.6875 15.1576 4.6875C12.4166 4.6875 10.625 6.34875 10.625 9.35625V12H7.57812V15.4688H10.625V23.8542C11.8674 24.0486 13.1326 24.0486 14.375 23.8542V15.4688H17.1711Z" fill="white"/>
</g>
<g clip-path="url(#clip1_116_53407)">
<path d="M72.2628 12.276C72.2628 11.4603 72.1967 10.6401 72.0556 9.83765H60.7368V14.4586H67.2185C66.9496 15.949 66.0853 17.2674 64.8199 18.1051V21.1035H68.6869C70.9577 19.0135 72.2628 15.9269 72.2628 12.276Z" fill="#272D37"/>
<path d="M60.7372 24.0002C63.9736 24.0002 66.703 22.9376 68.6916 21.1033L64.8246 18.1049C63.7487 18.8369 62.3598 19.2514 60.7416 19.2514C57.611 19.2514 54.9565 17.1393 54.0041 14.2997H50.0137V17.3906C52.0508 21.4428 56.2 24.0002 60.7372 24.0002Z" fill="#272D37"/>
<path d="M53.9998 14.3002C53.4972 12.8099 53.4972 11.196 53.9998 9.70569V6.61475H50.0138C48.3118 10.0055 48.3118 14.0004 50.0138 17.3912L53.9998 14.3002Z" fill="#272D37"/>
<path d="M60.7372 4.74954C62.448 4.72308 64.1015 5.36684 65.3405 6.54855L68.7666 3.12249C66.5972 1.08538 63.7179 -0.0345881 60.7372 0.000686596C56.2 0.000686596 52.0508 2.5581 50.0137 6.61469L53.9997 9.70563C54.9477 6.86161 57.6065 4.74954 60.7372 4.74954Z" fill="#272D37"/>
</g>
<path d="M118.184 18.7033C117.821 19.5418 117.391 20.3136 116.894 21.0232C116.215 21.9906 115.66 22.6602 115.232 23.032C114.568 23.6424 113.857 23.955 113.095 23.9728C112.549 23.9728 111.889 23.8172 111.122 23.5017C110.352 23.1876 109.645 23.032 108.998 23.032C108.319 23.032 107.591 23.1876 106.813 23.5017C106.034 23.8172 105.406 23.9816 104.926 23.9979C104.195 24.0291 103.467 23.7076 102.741 23.032C102.277 22.6276 101.697 21.9343 101.003 20.9521C100.257 19.9033 99.6442 18.687 99.1641 17.3004C98.6499 15.8026 98.3921 14.3523 98.3921 12.9482C98.3921 11.3398 98.7396 9.95259 99.4358 8.79011C99.9829 7.85636 100.711 7.11979 101.622 6.57906C102.533 6.03834 103.517 5.76279 104.577 5.74516C105.157 5.74516 105.917 5.92456 106.862 6.27715C107.805 6.63091 108.41 6.81032 108.675 6.81032C108.874 6.81032 109.546 6.60054 110.686 6.18233C111.764 5.79449 112.673 5.63391 113.418 5.69716C115.437 5.86012 116.954 6.6561 117.963 8.09013C116.157 9.18432 115.264 10.7169 115.282 12.6829C115.298 14.2142 115.854 15.4886 116.946 16.5004C117.44 16.97 117.993 17.333 118.608 17.5907C118.474 17.9774 118.334 18.3477 118.184 18.7033ZM113.553 0.480137C113.553 1.68041 113.115 2.8011 112.241 3.8384C111.186 5.07155 109.91 5.78412 108.526 5.67168C108.509 5.52769 108.499 5.37614 108.499 5.21688C108.499 4.06462 109 2.83147 109.891 1.82321C110.336 1.3127 110.901 0.888228 111.587 0.549615C112.272 0.216055 112.919 0.031589 113.528 0C113.546 0.160458 113.553 0.320926 113.553 0.480121V0.480137Z" fill="#272D37"/>
<g clip-path="url(#clip2_116_53407)">
<path d="M161.35 0H151.65C147.707 0 144.5 3.20735 144.5 7.14973V16.8503C144.5 20.7926 147.707 24 151.65 24H161.35C165.293 24 168.5 20.7926 168.5 16.8503V7.14973C168.5 3.20735 165.293 0 161.35 0ZM166.086 16.8503C166.086 19.4655 163.965 21.5856 161.35 21.5856H151.65C149.035 21.5856 146.914 19.4655 146.914 16.8503V7.14973C146.914 4.53446 149.035 2.4144 151.65 2.4144H161.35C163.965 2.4144 166.086 4.53446 166.086 7.14973V16.8503Z" fill="#272D37"/>
<path d="M156.5 5.79272C153.078 5.79272 150.293 8.57729 150.293 11.9999C150.293 15.4226 153.078 18.2072 156.5 18.2072C159.923 18.2072 162.707 15.4226 162.707 11.9999C162.707 8.57725 159.923 5.79272 156.5 5.79272ZM156.5 15.7928C154.405 15.7928 152.707 14.0947 152.707 12C152.707 9.90523 154.406 8.20712 156.5 8.20712C158.595 8.20712 160.293 9.90523 160.293 12C160.293 14.0947 158.595 15.7928 156.5 15.7928Z" fill="#272D37"/>
<path d="M162.719 7.32673C163.54 7.32673 164.206 6.66083 164.206 5.83939C164.206 5.01796 163.54 4.35205 162.719 4.35205C161.897 4.35205 161.231 5.01796 161.231 5.83939C161.231 6.66083 161.897 7.32673 162.719 7.32673Z" fill="#272D37"/>
</g>
<defs>
<clipPath id="clip0_116_53407">
<rect width="24" height="24" fill="white" transform="translate(0.5)"/>
</clipPath>
<clipPath id="clip1_116_53407">
<rect width="24" height="24" fill="white" transform="translate(48.5)"/>
</clipPath>
<clipPath id="clip2_116_53407">
<rect width="24" height="24" fill="white" transform="translate(144.5)"/>
</clipPath>
</defs>
</svg>
